<mxfile host="app.diagrams.net" modified="2024-03-22T13:07:36.328Z" agent="Mozilla/5.0 (Windows NT 10.0; Win64; x64) AppleWebKit/537.36 (KHTML, like Gecko) Chrome/122.0.0.0 Safari/537.36 Edg/122.0.0.0" etag="MwsviwAZmUoL-HEJVvVM" version="24.0.5" type="github">
  <diagram name="Page-1" id="c4acf3e9-155e-7222-9cf6-157b1a14988f">
    <mxGraphModel dx="2680" dy="1183" grid="1" gridSize="10" guides="1" tooltips="1" connect="1" arrows="1" fold="1" page="1" pageScale="1" pageWidth="850" pageHeight="1100" background="none" math="0" shadow="0">
      <root>
        <mxCell id="0" />
        <mxCell id="1" parent="0" />
        <mxCell id="17acba5748e5396b-20" value="Bookings" style="swimlane;html=1;fontStyle=0;childLayout=stackLayout;horizontal=1;startSize=26;fillColor=none;horizontalStack=0;resizeParent=1;resizeLast=0;collapsible=1;marginBottom=0;swimlaneFillColor=#ffffff;rounded=0;shadow=0;comic=0;labelBackgroundColor=none;strokeWidth=1;fontFamily=Verdana;fontSize=10;align=center;" parent="1" vertex="1">
          <mxGeometry x="140" y="322" width="140" height="156" as="geometry" />
        </mxCell>
        <mxCell id="17acba5748e5396b-24" value="+ get: Map" style="text;html=1;strokeColor=none;fillColor=none;align=left;verticalAlign=top;spacingLeft=4;spacingRight=4;whiteSpace=wrap;overflow=hidden;rotatable=0;points=[[0,0.5],[1,0.5]];portConstraint=eastwest;" parent="17acba5748e5396b-20" vertex="1">
          <mxGeometry y="26" width="140" height="26" as="geometry" />
        </mxCell>
        <mxCell id="17acba5748e5396b-26" value="+ add: void&amp;nbsp;" style="text;html=1;strokeColor=none;fillColor=none;align=left;verticalAlign=top;spacingLeft=4;spacingRight=4;whiteSpace=wrap;overflow=hidden;rotatable=0;points=[[0,0.5],[1,0.5]];portConstraint=eastwest;" parent="17acba5748e5396b-20" vertex="1">
          <mxGeometry y="52" width="140" height="30" as="geometry" />
        </mxCell>
        <mxCell id="sd9aR1y3l03FeJ3WjGJI-2" value="+ delete: void&amp;nbsp;" style="text;html=1;strokeColor=none;fillColor=none;align=left;verticalAlign=top;spacingLeft=4;spacingRight=4;whiteSpace=wrap;overflow=hidden;rotatable=0;points=[[0,0.5],[1,0.5]];portConstraint=eastwest;" parent="17acba5748e5396b-20" vertex="1">
          <mxGeometry y="82" width="140" height="26" as="geometry" />
        </mxCell>
        <mxCell id="sd9aR1y3l03FeJ3WjGJI-26" value="+ verify(Booking): Bool&amp;nbsp;" style="text;html=1;strokeColor=none;fillColor=none;align=left;verticalAlign=top;spacingLeft=4;spacingRight=4;whiteSpace=wrap;overflow=hidden;rotatable=0;points=[[0,0.5],[1,0.5]];portConstraint=eastwest;" parent="17acba5748e5396b-20" vertex="1">
          <mxGeometry y="108" width="140" height="26" as="geometry" />
        </mxCell>
        <mxCell id="5d2195bd80daf111-26" style="edgeStyle=orthogonalEdgeStyle;rounded=0;html=1;dashed=1;labelBackgroundColor=none;startFill=0;endArrow=open;endFill=0;endSize=10;fontFamily=Verdana;fontSize=10;" parent="1" edge="1">
          <mxGeometry relative="1" as="geometry">
            <Array as="points" />
            <mxPoint x="640" y="300" as="sourcePoint" />
          </mxGeometry>
        </mxCell>
        <mxCell id="sd9aR1y3l03FeJ3WjGJI-22" style="edgeStyle=orthogonalEdgeStyle;rounded=0;orthogonalLoop=1;jettySize=auto;html=1;exitX=1;exitY=0.25;exitDx=0;exitDy=0;entryX=-0.009;entryY=0.085;entryDx=0;entryDy=0;entryPerimeter=0;" parent="1" source="5d2195bd80daf111-18" target="17acba5748e5396b-20" edge="1">
          <mxGeometry relative="1" as="geometry">
            <Array as="points">
              <mxPoint x="90" y="390" />
              <mxPoint x="110" y="390" />
              <mxPoint x="110" y="335" />
            </Array>
          </mxGeometry>
        </mxCell>
        <mxCell id="5d2195bd80daf111-18" value="&lt;p style=&quot;margin:0px;margin-top:4px;text-align:center;&quot;&gt;&lt;i&gt;&amp;lt;&amp;lt;Interface&amp;gt;&amp;gt;&lt;/i&gt;&lt;br&gt;&lt;b&gt;Repository&lt;br&gt;&lt;/b&gt;&lt;/p&gt;&lt;hr size=&quot;1&quot;&gt;&lt;p style=&quot;margin:0px;margin-left:4px;&quot;&gt;+ get: Map&amp;nbsp;&lt;br&gt;+ add: void&lt;/p&gt;&lt;p style=&quot;margin:0px;margin-left:4px;&quot;&gt;+ delete: void&amp;nbsp;&lt;/p&gt;" style="verticalAlign=top;align=left;overflow=fill;fontSize=12;fontFamily=Helvetica;html=1;rounded=0;shadow=0;comic=0;labelBackgroundColor=none;strokeWidth=1" parent="1" vertex="1">
          <mxGeometry x="10" y="360" width="80" height="100" as="geometry" />
        </mxCell>
        <mxCell id="sd9aR1y3l03FeJ3WjGJI-21" style="edgeStyle=orthogonalEdgeStyle;rounded=0;orthogonalLoop=1;jettySize=auto;html=1;exitX=0;exitY=0;exitDx=0;exitDy=0;entryX=1;entryY=0.5;entryDx=0;entryDy=0;" parent="1" source="sd9aR1y3l03FeJ3WjGJI-3" target="sd9aR1y3l03FeJ3WjGJI-26" edge="1">
          <mxGeometry relative="1" as="geometry">
            <mxPoint x="279.9999999999998" y="359" as="targetPoint" />
            <Array as="points">
              <mxPoint x="310" y="330" />
              <mxPoint x="300" y="330" />
              <mxPoint x="300" y="443" />
            </Array>
          </mxGeometry>
        </mxCell>
        <mxCell id="sd9aR1y3l03FeJ3WjGJI-3" value="Booking" style="swimlane;html=1;fontStyle=0;childLayout=stackLayout;horizontal=1;startSize=26;fillColor=none;horizontalStack=0;resizeParent=1;resizeLast=0;collapsible=1;marginBottom=0;swimlaneFillColor=#ffffff;rounded=0;shadow=0;comic=0;labelBackgroundColor=none;strokeWidth=1;fontFamily=Verdana;fontSize=10;align=center;" parent="1" vertex="1">
          <mxGeometry x="310" y="318" width="200" height="160" as="geometry" />
        </mxCell>
        <mxCell id="sd9aR1y3l03FeJ3WjGJI-4" value="+ first_name: Char" style="text;html=1;strokeColor=none;fillColor=none;align=left;verticalAlign=top;spacingLeft=4;spacingRight=4;whiteSpace=wrap;overflow=hidden;rotatable=0;points=[[0,0.5],[1,0.5]];portConstraint=eastwest;" parent="sd9aR1y3l03FeJ3WjGJI-3" vertex="1">
          <mxGeometry y="26" width="200" height="22" as="geometry" />
        </mxCell>
        <mxCell id="sd9aR1y3l03FeJ3WjGJI-5" value="+ last_name: Char" style="text;html=1;strokeColor=none;fillColor=none;align=left;verticalAlign=top;spacingLeft=4;spacingRight=4;whiteSpace=wrap;overflow=hidden;rotatable=0;points=[[0,0.5],[1,0.5]];portConstraint=eastwest;" parent="sd9aR1y3l03FeJ3WjGJI-3" vertex="1">
          <mxGeometry y="48" width="200" height="26" as="geometry" />
        </mxCell>
        <mxCell id="sd9aR1y3l03FeJ3WjGJI-6" value="+ flight_code: Char&amp;nbsp;" style="text;html=1;strokeColor=none;fillColor=none;align=left;verticalAlign=top;spacingLeft=4;spacingRight=4;whiteSpace=wrap;overflow=hidden;rotatable=0;points=[[0,0.5],[1,0.5]];portConstraint=eastwest;" parent="sd9aR1y3l03FeJ3WjGJI-3" vertex="1">
          <mxGeometry y="74" width="200" height="26" as="geometry" />
        </mxCell>
        <mxCell id="sd9aR1y3l03FeJ3WjGJI-7" value="+ isCheckedIn: Bool&amp;nbsp;" style="text;html=1;strokeColor=none;fillColor=none;align=left;verticalAlign=top;spacingLeft=4;spacingRight=4;whiteSpace=wrap;overflow=hidden;rotatable=0;points=[[0,0.5],[1,0.5]];portConstraint=eastwest;" parent="sd9aR1y3l03FeJ3WjGJI-3" vertex="1">
          <mxGeometry y="100" width="200" height="26" as="geometry" />
        </mxCell>
        <mxCell id="sd9aR1y3l03FeJ3WjGJI-65" value="" style="endArrow=none;html=1;rounded=0;" parent="sd9aR1y3l03FeJ3WjGJI-3" edge="1">
          <mxGeometry width="50" height="50" relative="1" as="geometry">
            <mxPoint y="125" as="sourcePoint" />
            <mxPoint x="200" y="125" as="targetPoint" />
          </mxGeometry>
        </mxCell>
        <mxCell id="sd9aR1y3l03FeJ3WjGJI-8" value="+ ref_code(double, Char, int): Char&amp;nbsp;" style="text;html=1;strokeColor=none;fillColor=none;align=left;verticalAlign=top;spacingLeft=4;spacingRight=4;whiteSpace=wrap;overflow=hidden;rotatable=0;points=[[0,0.5],[1,0.5]];portConstraint=eastwest;" parent="sd9aR1y3l03FeJ3WjGJI-3" vertex="1">
          <mxGeometry y="126" width="200" height="34" as="geometry" />
        </mxCell>
        <mxCell id="sd9aR1y3l03FeJ3WjGJI-12" value="booking_ref_code" style="swimlane;html=1;fontStyle=0;childLayout=stackLayout;horizontal=1;startSize=26;fillColor=none;horizontalStack=0;resizeParent=1;resizeLast=0;collapsible=1;marginBottom=0;swimlaneFillColor=#ffffff;rounded=0;shadow=0;comic=0;labelBackgroundColor=none;strokeWidth=1;fontFamily=Verdana;fontSize=10;align=center;" parent="1" vertex="1">
          <mxGeometry x="595" y="318" width="185" height="172" as="geometry" />
        </mxCell>
        <mxCell id="sd9aR1y3l03FeJ3WjGJI-13" value="+ length :int" style="text;html=1;strokeColor=none;fillColor=none;align=left;verticalAlign=top;spacingLeft=4;spacingRight=4;whiteSpace=wrap;overflow=hidden;rotatable=0;points=[[0,0.5],[1,0.5]];portConstraint=eastwest;" parent="sd9aR1y3l03FeJ3WjGJI-12" vertex="1">
          <mxGeometry y="26" width="185" height="22" as="geometry" />
        </mxCell>
        <mxCell id="sd9aR1y3l03FeJ3WjGJI-14" value="+ flight_code: Char&amp;nbsp;" style="text;html=1;strokeColor=none;fillColor=none;align=left;verticalAlign=top;spacingLeft=4;spacingRight=4;whiteSpace=wrap;overflow=hidden;rotatable=0;points=[[0,0.5],[1,0.5]];portConstraint=eastwest;" parent="sd9aR1y3l03FeJ3WjGJI-12" vertex="1">
          <mxGeometry y="48" width="185" height="26" as="geometry" />
        </mxCell>
        <mxCell id="sd9aR1y3l03FeJ3WjGJI-15" value="+ rand_num:double&amp;nbsp;" style="text;html=1;strokeColor=none;fillColor=none;align=left;verticalAlign=top;spacingLeft=4;spacingRight=4;whiteSpace=wrap;overflow=hidden;rotatable=0;points=[[0,0.5],[1,0.5]];portConstraint=eastwest;" parent="sd9aR1y3l03FeJ3WjGJI-12" vertex="1">
          <mxGeometry y="74" width="185" height="26" as="geometry" />
        </mxCell>
        <mxCell id="sd9aR1y3l03FeJ3WjGJI-66" value="" style="endArrow=none;html=1;rounded=0;exitX=0.005;exitY=-0.038;exitDx=0;exitDy=0;exitPerimeter=0;" parent="sd9aR1y3l03FeJ3WjGJI-12" source="sd9aR1y3l03FeJ3WjGJI-16" edge="1">
          <mxGeometry width="50" height="50" relative="1" as="geometry">
            <mxPoint x="-15" y="100" as="sourcePoint" />
            <mxPoint x="185" y="100" as="targetPoint" />
          </mxGeometry>
        </mxCell>
        <mxCell id="sd9aR1y3l03FeJ3WjGJI-16" value="+ get(double, Char, int ): Char&amp;nbsp;" style="text;html=1;strokeColor=none;fillColor=none;align=left;verticalAlign=top;spacingLeft=4;spacingRight=4;whiteSpace=wrap;overflow=hidden;rotatable=0;points=[[0,0.5],[1,0.5]];portConstraint=eastwest;" parent="sd9aR1y3l03FeJ3WjGJI-12" vertex="1">
          <mxGeometry y="100" width="185" height="26" as="geometry" />
        </mxCell>
        <mxCell id="sd9aR1y3l03FeJ3WjGJI-25" value="+ verify(double, Char, int ): Char&amp;nbsp;" style="text;html=1;strokeColor=none;fillColor=none;align=left;verticalAlign=top;spacingLeft=4;spacingRight=4;whiteSpace=wrap;overflow=hidden;rotatable=0;points=[[0,0.5],[1,0.5]];portConstraint=eastwest;" parent="sd9aR1y3l03FeJ3WjGJI-12" vertex="1">
          <mxGeometry y="126" width="185" height="26" as="geometry" />
        </mxCell>
        <mxCell id="sd9aR1y3l03FeJ3WjGJI-20" style="edgeStyle=orthogonalEdgeStyle;rounded=0;orthogonalLoop=1;jettySize=auto;html=1;exitX=0;exitY=0.5;exitDx=0;exitDy=0;entryX=1;entryY=0.5;entryDx=0;entryDy=0;" parent="1" source="sd9aR1y3l03FeJ3WjGJI-16" target="sd9aR1y3l03FeJ3WjGJI-8" edge="1">
          <mxGeometry relative="1" as="geometry" />
        </mxCell>
        <mxCell id="sd9aR1y3l03FeJ3WjGJI-32" value="Flights" style="swimlane;html=1;fontStyle=0;childLayout=stackLayout;horizontal=1;startSize=26;fillColor=none;horizontalStack=0;resizeParent=1;resizeLast=0;collapsible=1;marginBottom=0;swimlaneFillColor=#ffffff;rounded=0;shadow=0;comic=0;labelBackgroundColor=none;strokeWidth=1;fontFamily=Verdana;fontSize=10;align=center;" parent="1" vertex="1">
          <mxGeometry x="140" y="542" width="140" height="156" as="geometry" />
        </mxCell>
        <mxCell id="sd9aR1y3l03FeJ3WjGJI-33" value="+ get: Map" style="text;html=1;strokeColor=none;fillColor=none;align=left;verticalAlign=top;spacingLeft=4;spacingRight=4;whiteSpace=wrap;overflow=hidden;rotatable=0;points=[[0,0.5],[1,0.5]];portConstraint=eastwest;" parent="sd9aR1y3l03FeJ3WjGJI-32" vertex="1">
          <mxGeometry y="26" width="140" height="26" as="geometry" />
        </mxCell>
        <mxCell id="sd9aR1y3l03FeJ3WjGJI-34" value="+ add: void&amp;nbsp;" style="text;html=1;strokeColor=none;fillColor=none;align=left;verticalAlign=top;spacingLeft=4;spacingRight=4;whiteSpace=wrap;overflow=hidden;rotatable=0;points=[[0,0.5],[1,0.5]];portConstraint=eastwest;" parent="sd9aR1y3l03FeJ3WjGJI-32" vertex="1">
          <mxGeometry y="52" width="140" height="30" as="geometry" />
        </mxCell>
        <mxCell id="sd9aR1y3l03FeJ3WjGJI-35" value="+ delete: void&amp;nbsp;" style="text;html=1;strokeColor=none;fillColor=none;align=left;verticalAlign=top;spacingLeft=4;spacingRight=4;whiteSpace=wrap;overflow=hidden;rotatable=0;points=[[0,0.5],[1,0.5]];portConstraint=eastwest;" parent="sd9aR1y3l03FeJ3WjGJI-32" vertex="1">
          <mxGeometry y="82" width="140" height="26" as="geometry" />
        </mxCell>
        <mxCell id="sd9aR1y3l03FeJ3WjGJI-36" value="+ get_f(Flight): Char&amp;nbsp;" style="text;html=1;strokeColor=none;fillColor=none;align=left;verticalAlign=top;spacingLeft=4;spacingRight=4;whiteSpace=wrap;overflow=hidden;rotatable=0;points=[[0,0.5],[1,0.5]];portConstraint=eastwest;" parent="sd9aR1y3l03FeJ3WjGJI-32" vertex="1">
          <mxGeometry y="108" width="140" height="26" as="geometry" />
        </mxCell>
        <mxCell id="sd9aR1y3l03FeJ3WjGJI-37" style="edgeStyle=orthogonalEdgeStyle;rounded=0;orthogonalLoop=1;jettySize=auto;html=1;exitX=0;exitY=0.045;exitDx=0;exitDy=0;entryX=1;entryY=0.5;entryDx=0;entryDy=0;exitPerimeter=0;" parent="1" source="sd9aR1y3l03FeJ3WjGJI-38" target="sd9aR1y3l03FeJ3WjGJI-36" edge="1">
          <mxGeometry relative="1" as="geometry">
            <mxPoint x="279.9999999999998" y="421" as="targetPoint" />
            <Array as="points">
              <mxPoint x="300" y="520" />
              <mxPoint x="300" y="663" />
            </Array>
          </mxGeometry>
        </mxCell>
        <mxCell id="sd9aR1y3l03FeJ3WjGJI-38" value="Flight" style="swimlane;html=1;fontStyle=0;childLayout=stackLayout;horizontal=1;startSize=26;fillColor=none;horizontalStack=0;resizeParent=1;resizeLast=0;collapsible=1;marginBottom=0;swimlaneFillColor=#ffffff;rounded=0;shadow=0;comic=0;labelBackgroundColor=none;strokeWidth=1;fontFamily=Verdana;fontSize=10;align=center;" parent="1" vertex="1">
          <mxGeometry x="310" y="510" width="200" height="316" as="geometry" />
        </mxCell>
        <mxCell id="sd9aR1y3l03FeJ3WjGJI-39" value="+ destination&lt;span style=&quot;background-color: initial;&quot;&gt;: Char&lt;/span&gt;" style="text;html=1;strokeColor=none;fillColor=none;align=left;verticalAlign=top;spacingLeft=4;spacingRight=4;whiteSpace=wrap;overflow=hidden;rotatable=0;points=[[0,0.5],[1,0.5]];portConstraint=eastwest;" parent="sd9aR1y3l03FeJ3WjGJI-38" vertex="1">
          <mxGeometry y="26" width="200" height="22" as="geometry" />
        </mxCell>
        <mxCell id="sd9aR1y3l03FeJ3WjGJI-40" value="+ carriers: Char" style="text;html=1;strokeColor=none;fillColor=none;align=left;verticalAlign=top;spacingLeft=4;spacingRight=4;whiteSpace=wrap;overflow=hidden;rotatable=0;points=[[0,0.5],[1,0.5]];portConstraint=eastwest;" parent="sd9aR1y3l03FeJ3WjGJI-38" vertex="1">
          <mxGeometry y="48" width="200" height="26" as="geometry" />
        </mxCell>
        <mxCell id="sd9aR1y3l03FeJ3WjGJI-89" value="+ checked_passengers&lt;span style=&quot;background-color: initial;&quot;&gt;: int&amp;nbsp;&lt;/span&gt;" style="text;html=1;strokeColor=none;fillColor=none;align=left;verticalAlign=top;spacingLeft=4;spacingRight=4;whiteSpace=wrap;overflow=hidden;rotatable=0;points=[[0,0.5],[1,0.5]];portConstraint=eastwest;" parent="sd9aR1y3l03FeJ3WjGJI-38" vertex="1">
          <mxGeometry y="74" width="200" height="26" as="geometry" />
        </mxCell>
        <mxCell id="sd9aR1y3l03FeJ3WjGJI-90" value="+ checked_bag_weight&lt;span style=&quot;background-color: initial;&quot;&gt;: int&amp;nbsp;&lt;/span&gt;" style="text;html=1;strokeColor=none;fillColor=none;align=left;verticalAlign=top;spacingLeft=4;spacingRight=4;whiteSpace=wrap;overflow=hidden;rotatable=0;points=[[0,0.5],[1,0.5]];portConstraint=eastwest;" parent="sd9aR1y3l03FeJ3WjGJI-38" vertex="1">
          <mxGeometry y="100" width="200" height="26" as="geometry" />
        </mxCell>
        <mxCell id="sd9aR1y3l03FeJ3WjGJI-96" value="+ checked_bag_volume&lt;span style=&quot;background-color: initial;&quot;&gt;: int&amp;nbsp;&lt;/span&gt;" style="text;html=1;strokeColor=none;fillColor=none;align=left;verticalAlign=top;spacingLeft=4;spacingRight=4;whiteSpace=wrap;overflow=hidden;rotatable=0;points=[[0,0.5],[1,0.5]];portConstraint=eastwest;" parent="sd9aR1y3l03FeJ3WjGJI-38" vertex="1">
          <mxGeometry y="126" width="200" height="26" as="geometry" />
        </mxCell>
        <mxCell id="sd9aR1y3l03FeJ3WjGJI-91" value="+ baggage_fees&lt;span style=&quot;background-color: initial;&quot;&gt;: double&amp;nbsp;&lt;/span&gt;" style="text;html=1;strokeColor=none;fillColor=none;align=left;verticalAlign=top;spacingLeft=4;spacingRight=4;whiteSpace=wrap;overflow=hidden;rotatable=0;points=[[0,0.5],[1,0.5]];portConstraint=eastwest;" parent="sd9aR1y3l03FeJ3WjGJI-38" vertex="1">
          <mxGeometry y="152" width="200" height="26" as="geometry" />
        </mxCell>
        <mxCell id="sd9aR1y3l03FeJ3WjGJI-41" value="+&amp;nbsp;max_passengers&lt;span style=&quot;background-color: initial;&quot;&gt;: int&amp;nbsp;&lt;/span&gt;" style="text;html=1;strokeColor=none;fillColor=none;align=left;verticalAlign=top;spacingLeft=4;spacingRight=4;whiteSpace=wrap;overflow=hidden;rotatable=0;points=[[0,0.5],[1,0.5]];portConstraint=eastwest;" parent="sd9aR1y3l03FeJ3WjGJI-38" vertex="1">
          <mxGeometry y="178" width="200" height="26" as="geometry" />
        </mxCell>
        <mxCell id="sd9aR1y3l03FeJ3WjGJI-53" value="+&amp;nbsp;max_bag_weight&lt;span style=&quot;background-color: initial;&quot;&gt;: double&amp;nbsp;&lt;/span&gt;" style="text;html=1;strokeColor=none;fillColor=none;align=left;verticalAlign=top;spacingLeft=4;spacingRight=4;whiteSpace=wrap;overflow=hidden;rotatable=0;points=[[0,0.5],[1,0.5]];portConstraint=eastwest;" parent="sd9aR1y3l03FeJ3WjGJI-38" vertex="1">
          <mxGeometry y="204" width="200" height="26" as="geometry" />
        </mxCell>
        <mxCell id="sd9aR1y3l03FeJ3WjGJI-42" value="+&amp;nbsp;max_bag_volume&lt;span style=&quot;background-color: initial;&quot;&gt;: double&amp;nbsp;&lt;/span&gt;" style="text;html=1;strokeColor=none;fillColor=none;align=left;verticalAlign=top;spacingLeft=4;spacingRight=4;whiteSpace=wrap;overflow=hidden;rotatable=0;points=[[0,0.5],[1,0.5]];portConstraint=eastwest;" parent="sd9aR1y3l03FeJ3WjGJI-38" vertex="1">
          <mxGeometry y="230" width="200" height="26" as="geometry" />
        </mxCell>
        <mxCell id="sd9aR1y3l03FeJ3WjGJI-64" value="" style="endArrow=none;html=1;rounded=0;" parent="sd9aR1y3l03FeJ3WjGJI-38" edge="1">
          <mxGeometry width="50" height="50" relative="1" as="geometry">
            <mxPoint y="260" as="sourcePoint" />
            <mxPoint x="200" y="260" as="targetPoint" />
          </mxGeometry>
        </mxCell>
        <mxCell id="sd9aR1y3l03FeJ3WjGJI-62" value="+ capacity(double,double,int)&lt;span style=&quot;background-color: initial;&quot;&gt;: bool&amp;nbsp;&lt;/span&gt;" style="text;html=1;strokeColor=none;fillColor=none;align=left;verticalAlign=top;spacingLeft=4;spacingRight=4;whiteSpace=wrap;overflow=hidden;rotatable=0;points=[[0,0.5],[1,0.5]];portConstraint=eastwest;" parent="sd9aR1y3l03FeJ3WjGJI-38" vertex="1">
          <mxGeometry y="256" width="200" height="26" as="geometry" />
        </mxCell>
        <mxCell id="sd9aR1y3l03FeJ3WjGJI-63" value="" style="endArrow=none;html=1;rounded=0;" parent="sd9aR1y3l03FeJ3WjGJI-38" edge="1">
          <mxGeometry width="50" height="50" relative="1" as="geometry">
            <mxPoint y="152" as="sourcePoint" />
            <mxPoint x="200" y="152" as="targetPoint" />
          </mxGeometry>
        </mxCell>
        <mxCell id="sd9aR1y3l03FeJ3WjGJI-43" value="+ code(Char, Char, int): Char&amp;nbsp;" style="text;html=1;strokeColor=none;fillColor=none;align=left;verticalAlign=top;spacingLeft=4;spacingRight=4;whiteSpace=wrap;overflow=hidden;rotatable=0;points=[[0,0.5],[1,0.5]];portConstraint=eastwest;" parent="sd9aR1y3l03FeJ3WjGJI-38" vertex="1">
          <mxGeometry y="282" width="200" height="34" as="geometry" />
        </mxCell>
        <mxCell id="sd9aR1y3l03FeJ3WjGJI-50" style="edgeStyle=orthogonalEdgeStyle;rounded=0;orthogonalLoop=1;jettySize=auto;html=1;exitX=1;exitY=0.25;exitDx=0;exitDy=0;entryX=-0.01;entryY=0.084;entryDx=0;entryDy=0;entryPerimeter=0;" parent="1" source="5d2195bd80daf111-18" target="sd9aR1y3l03FeJ3WjGJI-32" edge="1">
          <mxGeometry relative="1" as="geometry">
            <mxPoint x="100" y="454" as="sourcePoint" />
            <mxPoint x="150" y="427" as="targetPoint" />
            <Array as="points">
              <mxPoint x="90" y="390" />
              <mxPoint x="110" y="390" />
              <mxPoint x="110" y="555" />
            </Array>
          </mxGeometry>
        </mxCell>
        <mxCell id="sd9aR1y3l03FeJ3WjGJI-52" style="edgeStyle=orthogonalEdgeStyle;rounded=0;orthogonalLoop=1;jettySize=auto;html=1;entryX=1;entryY=0.5;entryDx=0;entryDy=0;exitX=1;exitY=0.176;exitDx=0;exitDy=0;exitPerimeter=0;" parent="1" source="sd9aR1y3l03FeJ3WjGJI-43" target="sd9aR1y3l03FeJ3WjGJI-14" edge="1">
          <mxGeometry relative="1" as="geometry">
            <mxPoint x="780" y="650" as="sourcePoint" />
            <Array as="points">
              <mxPoint x="510" y="780" />
              <mxPoint x="530" y="780" />
              <mxPoint x="530" y="510" />
              <mxPoint x="800" y="510" />
              <mxPoint x="800" y="379" />
            </Array>
          </mxGeometry>
        </mxCell>
        <mxCell id="sd9aR1y3l03FeJ3WjGJI-54" value="flight_code" style="swimlane;html=1;fontStyle=0;childLayout=stackLayout;horizontal=1;startSize=26;fillColor=none;horizontalStack=0;resizeParent=1;resizeLast=0;collapsible=1;marginBottom=0;swimlaneFillColor=#ffffff;rounded=0;shadow=0;comic=0;labelBackgroundColor=none;strokeWidth=1;fontFamily=Verdana;fontSize=10;align=center;" parent="1" vertex="1">
          <mxGeometry x="610" y="530" width="185" height="130" as="geometry" />
        </mxCell>
        <mxCell id="sd9aR1y3l03FeJ3WjGJI-55" value="+ destination :int" style="text;html=1;strokeColor=none;fillColor=none;align=left;verticalAlign=top;spacingLeft=4;spacingRight=4;whiteSpace=wrap;overflow=hidden;rotatable=0;points=[[0,0.5],[1,0.5]];portConstraint=eastwest;" parent="sd9aR1y3l03FeJ3WjGJI-54" vertex="1">
          <mxGeometry y="26" width="185" height="18" as="geometry" />
        </mxCell>
        <mxCell id="sd9aR1y3l03FeJ3WjGJI-56" value="+ carrier: Char&amp;nbsp;" style="text;html=1;strokeColor=none;fillColor=none;align=left;verticalAlign=top;spacingLeft=4;spacingRight=4;whiteSpace=wrap;overflow=hidden;rotatable=0;points=[[0,0.5],[1,0.5]];portConstraint=eastwest;" parent="sd9aR1y3l03FeJ3WjGJI-54" vertex="1">
          <mxGeometry y="44" width="185" height="26" as="geometry" />
        </mxCell>
        <mxCell id="sd9aR1y3l03FeJ3WjGJI-57" value="+ plane_num:int&amp;nbsp;" style="text;html=1;strokeColor=none;fillColor=none;align=left;verticalAlign=top;spacingLeft=4;spacingRight=4;whiteSpace=wrap;overflow=hidden;rotatable=0;points=[[0,0.5],[1,0.5]];portConstraint=eastwest;" parent="sd9aR1y3l03FeJ3WjGJI-54" vertex="1">
          <mxGeometry y="70" width="185" height="26" as="geometry" />
        </mxCell>
        <mxCell id="sd9aR1y3l03FeJ3WjGJI-67" value="" style="endArrow=none;html=1;rounded=0;exitX=-0.016;exitY=0.019;exitDx=0;exitDy=0;exitPerimeter=0;" parent="sd9aR1y3l03FeJ3WjGJI-54" source="sd9aR1y3l03FeJ3WjGJI-58" edge="1">
          <mxGeometry width="50" height="50" relative="1" as="geometry">
            <mxPoint x="-15" y="95.5" as="sourcePoint" />
            <mxPoint x="185" y="95.5" as="targetPoint" />
          </mxGeometry>
        </mxCell>
        <mxCell id="sd9aR1y3l03FeJ3WjGJI-58" value="+ get(Char, Char, int ): Char&amp;nbsp;" style="text;html=1;strokeColor=none;fillColor=none;align=left;verticalAlign=top;spacingLeft=4;spacingRight=4;whiteSpace=wrap;overflow=hidden;rotatable=0;points=[[0,0.5],[1,0.5]];portConstraint=eastwest;" parent="sd9aR1y3l03FeJ3WjGJI-54" vertex="1">
          <mxGeometry y="96" width="185" height="26" as="geometry" />
        </mxCell>
        <mxCell id="sd9aR1y3l03FeJ3WjGJI-60" style="edgeStyle=orthogonalEdgeStyle;rounded=0;orthogonalLoop=1;jettySize=auto;html=1;exitX=-0.003;exitY=0.085;exitDx=0;exitDy=0;entryX=1;entryY=0.5;entryDx=0;entryDy=0;exitPerimeter=0;" parent="1" source="sd9aR1y3l03FeJ3WjGJI-54" target="sd9aR1y3l03FeJ3WjGJI-43" edge="1">
          <mxGeometry relative="1" as="geometry">
            <mxPoint x="595" y="489" as="sourcePoint" />
          </mxGeometry>
        </mxCell>
        <mxCell id="sd9aR1y3l03FeJ3WjGJI-61" style="edgeStyle=orthogonalEdgeStyle;rounded=0;orthogonalLoop=1;jettySize=auto;html=1;exitX=1;exitY=0.5;exitDx=0;exitDy=0;entryX=1;entryY=0.5;entryDx=0;entryDy=0;" parent="1" source="sd9aR1y3l03FeJ3WjGJI-43" target="sd9aR1y3l03FeJ3WjGJI-6" edge="1">
          <mxGeometry relative="1" as="geometry">
            <Array as="points">
              <mxPoint x="510" y="780" />
              <mxPoint x="530" y="780" />
              <mxPoint x="530" y="510" />
              <mxPoint x="800" y="510" />
              <mxPoint x="800" y="310" />
              <mxPoint x="540" y="310" />
              <mxPoint x="540" y="405" />
            </Array>
          </mxGeometry>
        </mxCell>
        <mxCell id="xB9QCmjPJtOc3La_OrAB-1" value="Queued Passengers" style="swimlane;html=1;fontStyle=0;childLayout=stackLayout;horizontal=1;startSize=26;fillColor=none;horizontalStack=0;resizeParent=1;resizeLast=0;collapsible=1;marginBottom=0;swimlaneFillColor=#ffffff;rounded=0;shadow=0;comic=0;labelBackgroundColor=none;strokeWidth=1;fontFamily=Verdana;fontSize=10;align=center;" vertex="1" parent="1">
          <mxGeometry x="140" y="130" width="140" height="110" as="geometry" />
        </mxCell>
        <mxCell id="xB9QCmjPJtOc3La_OrAB-2" value="+ get: Map" style="text;html=1;strokeColor=none;fillColor=none;align=left;verticalAlign=top;spacingLeft=4;spacingRight=4;whiteSpace=wrap;overflow=hidden;rotatable=0;points=[[0,0.5],[1,0.5]];portConstraint=eastwest;" vertex="1" parent="xB9QCmjPJtOc3La_OrAB-1">
          <mxGeometry y="26" width="140" height="26" as="geometry" />
        </mxCell>
        <mxCell id="xB9QCmjPJtOc3La_OrAB-3" value="+ add: void&amp;nbsp;" style="text;html=1;strokeColor=none;fillColor=none;align=left;verticalAlign=top;spacingLeft=4;spacingRight=4;whiteSpace=wrap;overflow=hidden;rotatable=0;points=[[0,0.5],[1,0.5]];portConstraint=eastwest;" vertex="1" parent="xB9QCmjPJtOc3La_OrAB-1">
          <mxGeometry y="52" width="140" height="30" as="geometry" />
        </mxCell>
        <mxCell id="xB9QCmjPJtOc3La_OrAB-4" value="+ delete: void&amp;nbsp;" style="text;html=1;strokeColor=none;fillColor=none;align=left;verticalAlign=top;spacingLeft=4;spacingRight=4;whiteSpace=wrap;overflow=hidden;rotatable=0;points=[[0,0.5],[1,0.5]];portConstraint=eastwest;" vertex="1" parent="xB9QCmjPJtOc3La_OrAB-1">
          <mxGeometry y="82" width="140" height="26" as="geometry" />
        </mxCell>
        <mxCell id="xB9QCmjPJtOc3La_OrAB-6" value="Passenger" style="swimlane;html=1;fontStyle=0;childLayout=stackLayout;horizontal=1;startSize=26;fillColor=none;horizontalStack=0;resizeParent=1;resizeLast=0;collapsible=1;marginBottom=0;swimlaneFillColor=#ffffff;rounded=0;shadow=0;comic=0;labelBackgroundColor=none;strokeWidth=1;fontFamily=Verdana;fontSize=10;align=center;" vertex="1" parent="1">
          <mxGeometry x="310" y="50" width="200" height="186" as="geometry" />
        </mxCell>
        <mxCell id="xB9QCmjPJtOc3La_OrAB-7" value="+ first_name: Char" style="text;html=1;strokeColor=none;fillColor=none;align=left;verticalAlign=top;spacingLeft=4;spacingRight=4;whiteSpace=wrap;overflow=hidden;rotatable=0;points=[[0,0.5],[1,0.5]];portConstraint=eastwest;" vertex="1" parent="xB9QCmjPJtOc3La_OrAB-6">
          <mxGeometry y="26" width="200" height="22" as="geometry" />
        </mxCell>
        <mxCell id="xB9QCmjPJtOc3La_OrAB-8" value="+ last_name: Char" style="text;html=1;strokeColor=none;fillColor=none;align=left;verticalAlign=top;spacingLeft=4;spacingRight=4;whiteSpace=wrap;overflow=hidden;rotatable=0;points=[[0,0.5],[1,0.5]];portConstraint=eastwest;" vertex="1" parent="xB9QCmjPJtOc3La_OrAB-6">
          <mxGeometry y="48" width="200" height="26" as="geometry" />
        </mxCell>
        <mxCell id="xB9QCmjPJtOc3La_OrAB-9" value="+ flight_code: Char&amp;nbsp;" style="text;html=1;strokeColor=none;fillColor=none;align=left;verticalAlign=top;spacingLeft=4;spacingRight=4;whiteSpace=wrap;overflow=hidden;rotatable=0;points=[[0,0.5],[1,0.5]];portConstraint=eastwest;" vertex="1" parent="xB9QCmjPJtOc3La_OrAB-6">
          <mxGeometry y="74" width="200" height="26" as="geometry" />
        </mxCell>
        <mxCell id="xB9QCmjPJtOc3La_OrAB-13" value="+ OnQueue: Bool&amp;nbsp;" style="text;html=1;strokeColor=none;fillColor=none;align=left;verticalAlign=top;spacingLeft=4;spacingRight=4;whiteSpace=wrap;overflow=hidden;rotatable=0;points=[[0,0.5],[1,0.5]];portConstraint=eastwest;" vertex="1" parent="xB9QCmjPJtOc3La_OrAB-6">
          <mxGeometry y="100" width="200" height="26" as="geometry" />
        </mxCell>
        <mxCell id="xB9QCmjPJtOc3La_OrAB-10" value="+ isCheckedIn: Bool&amp;nbsp;" style="text;html=1;strokeColor=none;fillColor=none;align=left;verticalAlign=top;spacingLeft=4;spacingRight=4;whiteSpace=wrap;overflow=hidden;rotatable=0;points=[[0,0.5],[1,0.5]];portConstraint=eastwest;" vertex="1" parent="xB9QCmjPJtOc3La_OrAB-6">
          <mxGeometry y="126" width="200" height="26" as="geometry" />
        </mxCell>
        <mxCell id="xB9QCmjPJtOc3La_OrAB-11" value="" style="endArrow=none;html=1;rounded=0;" edge="1" parent="xB9QCmjPJtOc3La_OrAB-6">
          <mxGeometry width="50" height="50" relative="1" as="geometry">
            <mxPoint y="125" as="sourcePoint" />
            <mxPoint x="200" y="125" as="targetPoint" />
          </mxGeometry>
        </mxCell>
        <mxCell id="xB9QCmjPJtOc3La_OrAB-12" value="+ ref_code(double, Char, int): Char&amp;nbsp;" style="text;html=1;strokeColor=none;fillColor=none;align=left;verticalAlign=top;spacingLeft=4;spacingRight=4;whiteSpace=wrap;overflow=hidden;rotatable=0;points=[[0,0.5],[1,0.5]];portConstraint=eastwest;" vertex="1" parent="xB9QCmjPJtOc3La_OrAB-6">
          <mxGeometry y="152" width="200" height="34" as="geometry" />
        </mxCell>
        <mxCell id="xB9QCmjPJtOc3La_OrAB-14" style="edgeStyle=orthogonalEdgeStyle;rounded=0;orthogonalLoop=1;jettySize=auto;html=1;exitX=0;exitY=0;exitDx=0;exitDy=0;" edge="1" parent="1">
          <mxGeometry relative="1" as="geometry">
            <mxPoint x="280" y="140" as="targetPoint" />
            <Array as="points">
              <mxPoint x="310" y="135" />
              <mxPoint x="300" y="135" />
              <mxPoint x="300" y="140" />
              <mxPoint x="280" y="140" />
            </Array>
            <mxPoint x="310" y="122.5" as="sourcePoint" />
          </mxGeometry>
        </mxCell>
        <mxCell id="xB9QCmjPJtOc3La_OrAB-15" style="edgeStyle=orthogonalEdgeStyle;rounded=0;orthogonalLoop=1;jettySize=auto;html=1;exitX=1;exitY=0.25;exitDx=0;exitDy=0;entryX=-0.015;entryY=0.1;entryDx=0;entryDy=0;entryPerimeter=0;" edge="1" parent="1" source="5d2195bd80daf111-18" target="xB9QCmjPJtOc3La_OrAB-1">
          <mxGeometry relative="1" as="geometry">
            <Array as="points">
              <mxPoint x="90" y="390" />
              <mxPoint x="110" y="390" />
              <mxPoint x="110" y="144" />
            </Array>
          </mxGeometry>
        </mxCell>
        <mxCell id="xB9QCmjPJtOc3La_OrAB-16" style="edgeStyle=orthogonalEdgeStyle;rounded=0;orthogonalLoop=1;jettySize=auto;html=1;entryX=1.017;entryY=0.081;entryDx=0;entryDy=0;entryPerimeter=0;" edge="1" parent="1" target="xB9QCmjPJtOc3La_OrAB-6">
          <mxGeometry relative="1" as="geometry">
            <mxPoint x="510" y="330" as="sourcePoint" />
            <Array as="points">
              <mxPoint x="510" y="330" />
              <mxPoint x="530" y="330" />
              <mxPoint x="530" y="65" />
            </Array>
          </mxGeometry>
        </mxCell>
        <mxCell id="xB9QCmjPJtOc3La_OrAB-17" value="Waiting Flights" style="swimlane;html=1;fontStyle=0;childLayout=stackLayout;horizontal=1;startSize=26;fillColor=none;horizontalStack=0;resizeParent=1;resizeLast=0;collapsible=1;marginBottom=0;swimlaneFillColor=#ffffff;rounded=0;shadow=0;comic=0;labelBackgroundColor=none;strokeWidth=1;fontFamily=Verdana;fontSize=10;align=center;" vertex="1" parent="1">
          <mxGeometry x="80" y="780" width="130" height="156" as="geometry" />
        </mxCell>
        <mxCell id="xB9QCmjPJtOc3La_OrAB-18" value="+ get: Map" style="text;html=1;strokeColor=none;fillColor=none;align=left;verticalAlign=top;spacingLeft=4;spacingRight=4;whiteSpace=wrap;overflow=hidden;rotatable=0;points=[[0,0.5],[1,0.5]];portConstraint=eastwest;" vertex="1" parent="xB9QCmjPJtOc3La_OrAB-17">
          <mxGeometry y="26" width="130" height="26" as="geometry" />
        </mxCell>
        <mxCell id="xB9QCmjPJtOc3La_OrAB-19" value="+ add: void&amp;nbsp;" style="text;html=1;strokeColor=none;fillColor=none;align=left;verticalAlign=top;spacingLeft=4;spacingRight=4;whiteSpace=wrap;overflow=hidden;rotatable=0;points=[[0,0.5],[1,0.5]];portConstraint=eastwest;" vertex="1" parent="xB9QCmjPJtOc3La_OrAB-17">
          <mxGeometry y="52" width="130" height="30" as="geometry" />
        </mxCell>
        <mxCell id="xB9QCmjPJtOc3La_OrAB-20" value="+ delete: void&amp;nbsp;" style="text;html=1;strokeColor=none;fillColor=none;align=left;verticalAlign=top;spacingLeft=4;spacingRight=4;whiteSpace=wrap;overflow=hidden;rotatable=0;points=[[0,0.5],[1,0.5]];portConstraint=eastwest;" vertex="1" parent="xB9QCmjPJtOc3La_OrAB-17">
          <mxGeometry y="82" width="130" height="26" as="geometry" />
        </mxCell>
        <mxCell id="xB9QCmjPJtOc3La_OrAB-21" value="+ get_f(Flight): Char&amp;nbsp;" style="text;html=1;strokeColor=none;fillColor=none;align=left;verticalAlign=top;spacingLeft=4;spacingRight=4;whiteSpace=wrap;overflow=hidden;rotatable=0;points=[[0,0.5],[1,0.5]];portConstraint=eastwest;" vertex="1" parent="xB9QCmjPJtOc3La_OrAB-17">
          <mxGeometry y="108" width="130" height="26" as="geometry" />
        </mxCell>
        <mxCell id="xB9QCmjPJtOc3La_OrAB-22" value="Flight" style="swimlane;html=1;fontStyle=0;childLayout=stackLayout;horizontal=1;startSize=26;fillColor=none;horizontalStack=0;resizeParent=1;resizeLast=0;collapsible=1;marginBottom=0;swimlaneFillColor=#ffffff;rounded=0;shadow=0;comic=0;labelBackgroundColor=none;strokeWidth=1;fontFamily=Verdana;fontSize=10;align=center;" vertex="1" parent="1">
          <mxGeometry x="250" y="840" width="240" height="418" as="geometry" />
        </mxCell>
        <mxCell id="xB9QCmjPJtOc3La_OrAB-23" value="+ destination&lt;span style=&quot;background-color: initial;&quot;&gt;: Char&lt;/span&gt;" style="text;html=1;strokeColor=none;fillColor=none;align=left;verticalAlign=top;spacingLeft=4;spacingRight=4;whiteSpace=wrap;overflow=hidden;rotatable=0;points=[[0,0.5],[1,0.5]];portConstraint=eastwest;" vertex="1" parent="xB9QCmjPJtOc3La_OrAB-22">
          <mxGeometry y="26" width="240" height="22" as="geometry" />
        </mxCell>
        <mxCell id="xB9QCmjPJtOc3La_OrAB-24" value="+ carriers: Char" style="text;html=1;strokeColor=none;fillColor=none;align=left;verticalAlign=top;spacingLeft=4;spacingRight=4;whiteSpace=wrap;overflow=hidden;rotatable=0;points=[[0,0.5],[1,0.5]];portConstraint=eastwest;" vertex="1" parent="xB9QCmjPJtOc3La_OrAB-22">
          <mxGeometry y="48" width="240" height="26" as="geometry" />
        </mxCell>
        <mxCell id="xB9QCmjPJtOc3La_OrAB-25" value="+ checked_passengers&lt;span style=&quot;background-color: initial;&quot;&gt;: int&amp;nbsp;&lt;/span&gt;" style="text;html=1;strokeColor=none;fillColor=none;align=left;verticalAlign=top;spacingLeft=4;spacingRight=4;whiteSpace=wrap;overflow=hidden;rotatable=0;points=[[0,0.5],[1,0.5]];portConstraint=eastwest;" vertex="1" parent="xB9QCmjPJtOc3La_OrAB-22">
          <mxGeometry y="74" width="240" height="26" as="geometry" />
        </mxCell>
        <mxCell id="xB9QCmjPJtOc3La_OrAB-26" value="+ checked_bag_weight&lt;span style=&quot;background-color: initial;&quot;&gt;: int&amp;nbsp;&lt;/span&gt;" style="text;html=1;strokeColor=none;fillColor=none;align=left;verticalAlign=top;spacingLeft=4;spacingRight=4;whiteSpace=wrap;overflow=hidden;rotatable=0;points=[[0,0.5],[1,0.5]];portConstraint=eastwest;" vertex="1" parent="xB9QCmjPJtOc3La_OrAB-22">
          <mxGeometry y="100" width="240" height="26" as="geometry" />
        </mxCell>
        <mxCell id="xB9QCmjPJtOc3La_OrAB-27" value="+ checked_bag_volume&lt;span style=&quot;background-color: initial;&quot;&gt;: int&amp;nbsp;&lt;/span&gt;" style="text;html=1;strokeColor=none;fillColor=none;align=left;verticalAlign=top;spacingLeft=4;spacingRight=4;whiteSpace=wrap;overflow=hidden;rotatable=0;points=[[0,0.5],[1,0.5]];portConstraint=eastwest;" vertex="1" parent="xB9QCmjPJtOc3La_OrAB-22">
          <mxGeometry y="126" width="240" height="26" as="geometry" />
        </mxCell>
        <mxCell id="xB9QCmjPJtOc3La_OrAB-28" value="+ baggage_fees&lt;span style=&quot;background-color: initial;&quot;&gt;: double&amp;nbsp;&lt;/span&gt;" style="text;html=1;strokeColor=none;fillColor=none;align=left;verticalAlign=top;spacingLeft=4;spacingRight=4;whiteSpace=wrap;overflow=hidden;rotatable=0;points=[[0,0.5],[1,0.5]];portConstraint=eastwest;" vertex="1" parent="xB9QCmjPJtOc3La_OrAB-22">
          <mxGeometry y="152" width="240" height="26" as="geometry" />
        </mxCell>
        <mxCell id="xB9QCmjPJtOc3La_OrAB-29" value="+&amp;nbsp;max_passengers&lt;span style=&quot;background-color: initial;&quot;&gt;: int&amp;nbsp;&lt;/span&gt;" style="text;html=1;strokeColor=none;fillColor=none;align=left;verticalAlign=top;spacingLeft=4;spacingRight=4;whiteSpace=wrap;overflow=hidden;rotatable=0;points=[[0,0.5],[1,0.5]];portConstraint=eastwest;" vertex="1" parent="xB9QCmjPJtOc3La_OrAB-22">
          <mxGeometry y="178" width="240" height="26" as="geometry" />
        </mxCell>
        <mxCell id="xB9QCmjPJtOc3La_OrAB-30" value="+&amp;nbsp;max_bag_weight&lt;span style=&quot;background-color: initial;&quot;&gt;: double&amp;nbsp;&lt;/span&gt;" style="text;html=1;strokeColor=none;fillColor=none;align=left;verticalAlign=top;spacingLeft=4;spacingRight=4;whiteSpace=wrap;overflow=hidden;rotatable=0;points=[[0,0.5],[1,0.5]];portConstraint=eastwest;" vertex="1" parent="xB9QCmjPJtOc3La_OrAB-22">
          <mxGeometry y="204" width="240" height="26" as="geometry" />
        </mxCell>
        <mxCell id="xB9QCmjPJtOc3La_OrAB-31" value="+&amp;nbsp;max_bag_volume&lt;span style=&quot;background-color: initial;&quot;&gt;: double&amp;nbsp;&lt;/span&gt;" style="text;html=1;strokeColor=none;fillColor=none;align=left;verticalAlign=top;spacingLeft=4;spacingRight=4;whiteSpace=wrap;overflow=hidden;rotatable=0;points=[[0,0.5],[1,0.5]];portConstraint=eastwest;" vertex="1" parent="xB9QCmjPJtOc3La_OrAB-22">
          <mxGeometry y="230" width="240" height="26" as="geometry" />
        </mxCell>
        <mxCell id="xB9QCmjPJtOc3La_OrAB-37" value="+ departure_time: Double&amp;nbsp;" style="text;html=1;strokeColor=none;fillColor=none;align=left;verticalAlign=top;spacingLeft=4;spacingRight=4;whiteSpace=wrap;overflow=hidden;rotatable=0;points=[[0,0.5],[1,0.5]];portConstraint=eastwest;" vertex="1" parent="xB9QCmjPJtOc3La_OrAB-22">
          <mxGeometry y="256" width="240" height="34" as="geometry" />
        </mxCell>
        <mxCell id="xB9QCmjPJtOc3La_OrAB-32" value="" style="endArrow=none;html=1;rounded=0;" edge="1" parent="xB9QCmjPJtOc3La_OrAB-22">
          <mxGeometry width="50" height="50" relative="1" as="geometry">
            <mxPoint x="-10" y="288.89" as="sourcePoint" />
            <mxPoint x="190" y="288.89" as="targetPoint" />
          </mxGeometry>
        </mxCell>
        <mxCell id="xB9QCmjPJtOc3La_OrAB-33" value="+ capacity(double,double,int)&lt;span style=&quot;background-color: initial;&quot;&gt;: bool&amp;nbsp;&lt;/span&gt;" style="text;html=1;strokeColor=none;fillColor=none;align=left;verticalAlign=top;spacingLeft=4;spacingRight=4;whiteSpace=wrap;overflow=hidden;rotatable=0;points=[[0,0.5],[1,0.5]];portConstraint=eastwest;" vertex="1" parent="xB9QCmjPJtOc3La_OrAB-22">
          <mxGeometry y="290" width="240" height="26" as="geometry" />
        </mxCell>
        <mxCell id="xB9QCmjPJtOc3La_OrAB-34" value="" style="endArrow=none;html=1;rounded=0;entryX=0.987;entryY=-0.009;entryDx=0;entryDy=0;entryPerimeter=0;" edge="1" parent="xB9QCmjPJtOc3La_OrAB-22" target="xB9QCmjPJtOc3La_OrAB-28">
          <mxGeometry width="50" height="50" relative="1" as="geometry">
            <mxPoint y="152" as="sourcePoint" />
            <mxPoint x="200" y="152" as="targetPoint" />
          </mxGeometry>
        </mxCell>
        <mxCell id="xB9QCmjPJtOc3La_OrAB-35" value="+ code(Char, Char, int): Char&amp;nbsp;" style="text;html=1;strokeColor=none;fillColor=none;align=left;verticalAlign=top;spacingLeft=4;spacingRight=4;whiteSpace=wrap;overflow=hidden;rotatable=0;points=[[0,0.5],[1,0.5]];portConstraint=eastwest;" vertex="1" parent="xB9QCmjPJtOc3La_OrAB-22">
          <mxGeometry y="316" width="240" height="34" as="geometry" />
        </mxCell>
        <mxCell id="xB9QCmjPJtOc3La_OrAB-42" value="+ IsWaiting(double departure_time): bool&amp;nbsp;" style="text;html=1;strokeColor=none;fillColor=none;align=left;verticalAlign=top;spacingLeft=4;spacingRight=4;whiteSpace=wrap;overflow=hidden;rotatable=0;points=[[0,0.5],[1,0.5]];portConstraint=eastwest;" vertex="1" parent="xB9QCmjPJtOc3La_OrAB-22">
          <mxGeometry y="350" width="240" height="34" as="geometry" />
        </mxCell>
        <mxCell id="xB9QCmjPJtOc3La_OrAB-36" value="+ Departed(double departure_time): bool&amp;nbsp;" style="text;html=1;strokeColor=none;fillColor=none;align=left;verticalAlign=top;spacingLeft=4;spacingRight=4;whiteSpace=wrap;overflow=hidden;rotatable=0;points=[[0,0.5],[1,0.5]];portConstraint=eastwest;" vertex="1" parent="xB9QCmjPJtOc3La_OrAB-22">
          <mxGeometry y="384" width="240" height="34" as="geometry" />
        </mxCell>
        <mxCell id="xB9QCmjPJtOc3La_OrAB-39" style="edgeStyle=orthogonalEdgeStyle;rounded=0;orthogonalLoop=1;jettySize=auto;html=1;" edge="1" parent="1">
          <mxGeometry relative="1" as="geometry">
            <mxPoint x="300" y="840" as="targetPoint" />
            <Array as="points">
              <mxPoint x="300" y="520" />
            </Array>
            <mxPoint x="310" y="520" as="sourcePoint" />
          </mxGeometry>
        </mxCell>
        <mxCell id="xB9QCmjPJtOc3La_OrAB-40" style="edgeStyle=orthogonalEdgeStyle;rounded=0;orthogonalLoop=1;jettySize=auto;html=1;exitX=0;exitY=0;exitDx=0;exitDy=0;entryX=0.983;entryY=-0.322;entryDx=0;entryDy=0;entryPerimeter=0;" edge="1" parent="1" source="xB9QCmjPJtOc3La_OrAB-22" target="xB9QCmjPJtOc3La_OrAB-18">
          <mxGeometry relative="1" as="geometry" />
        </mxCell>
        <mxCell id="xB9QCmjPJtOc3La_OrAB-41" style="edgeStyle=orthogonalEdgeStyle;rounded=0;orthogonalLoop=1;jettySize=auto;html=1;exitX=1;exitY=0.25;exitDx=0;exitDy=0;" edge="1" parent="1">
          <mxGeometry relative="1" as="geometry">
            <mxPoint x="90" y="380" as="sourcePoint" />
            <mxPoint x="110" y="770" as="targetPoint" />
            <Array as="points">
              <mxPoint x="90" y="390" />
              <mxPoint x="110" y="390" />
            </Array>
          </mxGeometry>
        </mxCell>
      </root>
    </mxGraphModel>
  </diagram>
</mxfile>
